<svg id="Layer_1" data-name="Layer 1" xmlns="http://www.w3.org/2000/svg" viewBox="0 0 105.38 105.49"><defs><style>.cls-1{fill:#ffbe00;}.cls-2{fill:#112a49;}</style></defs><title>SVG</title><rect class="cls-1" x="6.6" y="5.91" width="92.78" height="92.78" rx="27.04" ry="27.04"/><path class="cls-2" d="M82,39.53A28.8,28.8,0,0,0,65.41,22.15a36.84,36.84,0,0,0-14.29-2.58h-7C78.48,38.8,64.7,71.25,56.94,84.63a34.62,34.62,0,0,0,7.73-2A30,30,0,0,0,75.09,76a29.43,29.43,0,0,0,6.68-10.32A36.94,36.94,0,0,0,84.12,52.2,37.52,37.52,0,0,0,82,39.53Z"/><path class="cls-2" d="M56.1,84.64a55.34,55.34,0,0,0,5.24-19.4,13.18,13.18,0,0,1-4,2.82,14.7,14.7,0,0,1-6.27,1.29H43.93V35.24h6.4C42.77,27,33.16,22,27.54,19.57H26V85H51.33c4.12.23.63,7.81.63,7.81,2.08-4,3.81-7.52,4.1-8.09h0l0-.06v0Z"/></svg>