<svg id="Layer_1" data-name="Layer 1" xmlns="http://www.w3.org/2000/svg" viewBox="0 0 574.13 105.49"><defs><style>.cls-1{fill:#112a49;}.cls-2{fill:#ffbe00;}</style></defs><title>SVG</title><path class="cls-1" d="M180.64,33.11a28.87,28.87,0,0,0-10.1-6.86,36.19,36.19,0,0,0-14-2.53h-6.82c33.61,18.83,20.11,50.6,12.52,63.7a33.78,33.78,0,0,0,7.56-1.92A29.27,29.27,0,0,0,180,79a28.48,28.48,0,0,0,6.54-10.11,36,36,0,0,0,2.31-13.22,36.78,36.78,0,0,0-2.08-12.41A28.73,28.73,0,0,0,180.64,33.11Z"/><path class="cls-1" d="M166.56,68.44a13,13,0,0,1-3.88,2.76,14.35,14.35,0,0,1-6.13,1.26h-7V39.07h6.27c-7.41-8-16.82-12.95-22.32-15.35h-1.55V87.8h24.84c4,.23.62,7.65.62,7.65,2-4,3.73-7.36,4-7.92h0l0-.06,0,0h0A54.5,54.5,0,0,0,166.56,68.44Z"/><path class="cls-1" d="M238.27,46.89a24.36,24.36,0,0,0-8.18-5.42,32,32,0,0,0-22.44,0,24.24,24.24,0,0,0-8.13,5.42,22.32,22.32,0,0,0-5,7.86,27,27,0,0,0,0,18.7,22.32,22.32,0,0,0,5,7.86,24.24,24.24,0,0,0,8.13,5.42,32,32,0,0,0,22.44,0,24.36,24.36,0,0,0,8.18-5.42,22.6,22.6,0,0,0,5-7.86,27,27,0,0,0,0-18.7A22.6,22.6,0,0,0,238.27,46.89ZM224.94,71.6a8.11,8.11,0,0,1-12.1,0q-2.35-2.71-2.35-7.5t2.35-7.5a8.11,8.11,0,0,1,12.1,0q2.35,2.71,2.35,7.5T224.94,71.6Z"/><path class="cls-1" d="M325.21,45.58A12.36,12.36,0,0,0,321,41.2a13.79,13.79,0,0,0-7.46-1.76,22.15,22.15,0,0,0-10,2.17,17.09,17.09,0,0,0-6.91,6,13.2,13.2,0,0,0-1.49-3.07A10.25,10.25,0,0,0,292.64,42a12.4,12.4,0,0,0-3.75-1.85,17,17,0,0,0-5.05-.68,25,25,0,0,0-10.48,2,16.2,16.2,0,0,0-7,5.92v-7H251V87.86h17.16V61.21a11.06,11.06,0,0,1,3.39-4.88,7,7,0,0,1,4.38-1.89A4.37,4.37,0,0,1,279.28,56q1.39,1.57,1.39,5.1V87.86h17.17V61.21a11.12,11.12,0,0,1,3.38-4.88,7.08,7.08,0,0,1,4.39-1.89A4.33,4.33,0,0,1,309,56c.94,1,1.4,2.75,1.4,5.1V87.86h17.16V56.6a36.68,36.68,0,0,0-.45-5.42A16.79,16.79,0,0,0,325.21,45.58Z"/><path class="cls-2" d="M345.89,18.13H343c-4.26,0-7.72,3.89-7.72,8.69h0c0,4.79,3.46,8.68,7.72,8.68h2.89c4.26,0,7.72-3.89,7.72-8.68h0C353.61,22,350.15,18.13,345.89,18.13Z"/><rect class="cls-1" x="335.86" y="40.34" width="17.16" height="47.51"/><path class="cls-1" d="M407.09,45.58a12.45,12.45,0,0,0-4.34-4.38A14.64,14.64,0,0,0,395,39.44a26.45,26.45,0,0,0-10.8,2,16.05,16.05,0,0,0-7.09,5.92v-7H361.7V87.86h17.16V61.21a11.34,11.34,0,0,1,3.61-4.88,7.68,7.68,0,0,1,4.61-1.89A5,5,0,0,1,390.74,56q1.58,1.57,1.58,5.1V87.86h17.16V56.6a36.68,36.68,0,0,0-.45-5.42A16.23,16.23,0,0,0,407.09,45.58Z"/><path class="cls-1" d="M460.56,46.89a24.26,24.26,0,0,0-8.18-5.42,32,32,0,0,0-22.44,0,24.1,24.1,0,0,0-8.13,5.47,22.52,22.52,0,0,0-5,8,28.46,28.46,0,0,0-1.67,9.75,24.45,24.45,0,0,0,1.72,9.13,22.55,22.55,0,0,0,5,7.67,23.6,23.6,0,0,0,8.17,5.29,30,30,0,0,0,11.11,1.94q8.76,0,14.77-3.61a22.89,22.89,0,0,0,8.9-9.31h0a14.42,14.42,0,0,0,1.49-4.15h-16a6.41,6.41,0,0,1-3.3,3.52,11.55,11.55,0,0,1-5.29,1.26,9.72,9.72,0,0,1-5.5-1.67,6.68,6.68,0,0,1-2.81-5.46h33.34c.12-.72.22-1.55.31-2.48s.14-1.86.14-2.76a26.59,26.59,0,0,0-1.67-9.35A22.46,22.46,0,0,0,460.56,46.89ZM433.05,59a8.85,8.85,0,0,1,2.53-5.42,8.16,8.16,0,0,1,10.66,0A8.8,8.8,0,0,1,448.77,59Z"/><path class="cls-1" d="M534.31,29.2a15.89,15.89,0,0,1,3.12.36,25,25,0,0,1,3.29.9v-14a35.18,35.18,0,0,0-10.29-1.73,17.84,17.84,0,0,0-7.19,1.4,15.38,15.38,0,0,0-5.46,4,18.36,18.36,0,0,0-3.52,6.23A24.47,24.47,0,0,0,513,34.44v5.05h-7.86c-.3,0-1.09,0-2.27,0a14.52,14.52,0,0,0-8,2.53,20,20,0,0,0-6.28,7.36v-9H472.89V87.86h17.16V59.67a11,11,0,0,1,6.05-3.61,35,35,0,0,1,9-1.08H513V87.84h17.14l0-32.86h10.39V52.5h0V39.58H530.15V33.8Q530.15,29.2,534.31,29.2Z"/><path class="cls-1" d="M559,3.86A10.12,10.12,0,0,0,548.85,14V14a10.1,10.1,0,0,0,20.2-.06V13.9A10,10,0,0,0,559,3.86Zm8.9,10.1A8.93,8.93,0,1,1,550,14V14a8.93,8.93,0,1,1,17.86-.06Z"/><path class="cls-1" d="M563.78,11.87v-.06a3.22,3.22,0,0,0-.89-2.34,4.52,4.52,0,0,0-3.32-1.18h-4.78V19h2.38V15.58H559L561.32,19h2.77l-2.63-3.85A3.33,3.33,0,0,0,563.78,11.87Zm-2.4.14c0,.89-.64,1.53-1.84,1.53h-2.37V10.39h2.31c1.17,0,1.9.53,1.9,1.56Z"/><rect class="cls-2" x="4.97" y="5.99" width="92.78" height="92.78" rx="27.04" ry="27.04"/><path class="cls-1" d="M80.37,39.61A28.8,28.8,0,0,0,63.78,22.23a36.84,36.84,0,0,0-14.29-2.58h-7C76.85,38.88,63.07,71.32,55.31,84.71a34.62,34.62,0,0,0,7.73-2,30,30,0,0,0,10.42-6.64,29.43,29.43,0,0,0,6.68-10.32,36.94,36.94,0,0,0,2.35-13.51A37.52,37.52,0,0,0,80.37,39.61Z"/><path class="cls-1" d="M54.47,84.72a55.34,55.34,0,0,0,5.24-19.4,13.18,13.18,0,0,1-4,2.82,14.7,14.7,0,0,1-6.27,1.29H42.3V35.32h6.4c-7.56-8.2-17.17-13.22-22.79-15.67H24.33V85.1H49.7c4.12.23.63,7.81.63,7.81,2.08-4,3.81-7.52,4.1-8.09h0l0-.06v0Z"/></svg>