<svg id="Layer_1" data-name="Layer 1" xmlns="http://www.w3.org/2000/svg" viewBox="0 0 242.77 157.76"><defs><style>.cls-1{fill:#ffbe00;}.cls-2{fill:#112a49;}</style></defs><title>PDF</title><rect class="cls-1" x="64.31" y="4.63" width="92.78" height="92.78" rx="27.04" ry="27.04"/><path class="cls-2" d="M139.72,38.25a28.73,28.73,0,0,0-16.6-17.37,36.79,36.79,0,0,0-14.28-2.59h-7C136.2,37.52,122.41,70,114.66,83.35a34.62,34.62,0,0,0,7.73-2,30,30,0,0,0,10.41-6.64,29.14,29.14,0,0,0,6.69-10.32,37.09,37.09,0,0,0,2.35-13.5A37.58,37.58,0,0,0,139.72,38.25Z"/><path class="cls-2" d="M113.82,83.37A55.39,55.39,0,0,0,119.06,64a13.32,13.32,0,0,1-4,2.81,14.7,14.7,0,0,1-6.27,1.29h-7.19V34h6.4c-7.56-8.21-17.18-13.23-22.79-15.68H83.67V83.74H109c4.13.24.64,7.81.64,7.81,2.07-4,3.81-7.52,4.09-8.09h0l0-.06,0,0Z"/><path class="cls-2" d="M31.52,119.66A15.37,15.37,0,0,0,26.15,116a19.06,19.06,0,0,0-7.43-1.34H15.1c17.85,10,10.68,26.86,6.65,33.82a18.5,18.5,0,0,0,4-1A15.68,15.68,0,0,0,31.18,144a15.38,15.38,0,0,0,3.48-5.37,19.29,19.29,0,0,0,1.22-7,19.6,19.6,0,0,0-1.1-6.59A15.31,15.31,0,0,0,31.52,119.66Z"/><path class="cls-2" d="M24,138.42A6.71,6.71,0,0,1,22,139.88a7.57,7.57,0,0,1-3.26.67H15V122.82h3.33a36.14,36.14,0,0,0-11.85-8.14H5.64v34H18.83c2.14.12.33,4.06.33,4.06,1.08-2.11,2-3.91,2.13-4.21h0l0,0h0A28.85,28.85,0,0,0,24,138.42Z"/><path class="cls-2" d="M62.12,127a13,13,0,0,0-4.34-2.88,15.36,15.36,0,0,0-6-1.08,15.29,15.29,0,0,0-6,1.08A13,13,0,0,0,41.54,127a11.84,11.84,0,0,0-2.64,4.17,14.29,14.29,0,0,0,0,9.93,11.84,11.84,0,0,0,2.64,4.17,13,13,0,0,0,4.32,2.88,15.29,15.29,0,0,0,6,1.08,15.36,15.36,0,0,0,6-1.08,13,13,0,0,0,4.34-2.88,12,12,0,0,0,2.63-4.17,14.29,14.29,0,0,0,0-9.93A12,12,0,0,0,62.12,127ZM55,140.1a4.31,4.31,0,0,1-6.43,0,7,7,0,0,1,0-8,4.33,4.33,0,0,1,6.43,0,7,7,0,0,1,0,8Z"/><path class="cls-2" d="M108.28,126.28a6.41,6.41,0,0,0-2.23-2.32,7.21,7.21,0,0,0-4-.94,11.9,11.9,0,0,0-5.3,1.15,9,9,0,0,0-3.66,3.22,7.05,7.05,0,0,0-.8-1.63,5.36,5.36,0,0,0-1.34-1.4,6.72,6.72,0,0,0-2-1,9,9,0,0,0-2.69-.36,13.23,13.23,0,0,0-5.56,1.08,8.54,8.54,0,0,0-3.69,3.14V123.5h-8.2v25.23H78V134.58a5.84,5.84,0,0,1,1.8-2.59,3.74,3.74,0,0,1,2.32-1,2.3,2.3,0,0,1,1.8.84,4,4,0,0,1,.75,2.71v14.2h9.11V134.58a5.84,5.84,0,0,1,1.8-2.59,3.74,3.74,0,0,1,2.32-1,2.3,2.3,0,0,1,1.8.84,4,4,0,0,1,.75,2.71v14.2h9.11v-16.6a19.23,19.23,0,0,0-.24-2.87A8.91,8.91,0,0,0,108.28,126.28Z"/><path class="cls-1" d="M119.27,111.71h-1.54a4.38,4.38,0,0,0-4.1,4.61h0a4.38,4.38,0,0,0,4.1,4.61h1.54a4.38,4.38,0,0,0,4.09-4.61h0A4.37,4.37,0,0,0,119.27,111.71Z"/><rect class="cls-2" x="113.94" y="123.5" width="9.11" height="25.23"/><path class="cls-2" d="M151.76,126.28a6.54,6.54,0,0,0-2.3-2.32,7.71,7.71,0,0,0-4.1-.94,14,14,0,0,0-5.73,1.08,8.53,8.53,0,0,0-3.77,3.14V123.5h-8.2v25.23h9.11V134.58a6.08,6.08,0,0,1,1.92-2.59,4.08,4.08,0,0,1,2.45-1,2.67,2.67,0,0,1,1.94.84,3.73,3.73,0,0,1,.84,2.71v14.2H153v-16.6a19.23,19.23,0,0,0-.24-2.87A8.52,8.52,0,0,0,151.76,126.28Z"/><path class="cls-2" d="M180.15,127a12.77,12.77,0,0,0-4.34-2.88,17,17,0,0,0-11.92,0,12.73,12.73,0,0,0-4.31,2.9,12,12,0,0,0-2.64,4.27,15.12,15.12,0,0,0-.89,5.18,13.22,13.22,0,0,0,.91,4.85,12.09,12.09,0,0,0,2.67,4.07,12.34,12.34,0,0,0,4.34,2.81,15.76,15.76,0,0,0,5.9,1,15,15,0,0,0,7.84-1.92,12.15,12.15,0,0,0,4.72-4.94h0a7.53,7.53,0,0,0,.79-2.21h-8.5A3.35,3.35,0,0,1,173,142a6.1,6.1,0,0,1-2.81.68,5.2,5.2,0,0,1-2.92-.89,3.54,3.54,0,0,1-1.49-2.9h17.7c.06-.39.12-.83.17-1.32a14.55,14.55,0,0,0,.07-1.46,14.11,14.11,0,0,0-.89-5A11.84,11.84,0,0,0,180.15,127Zm-14.6,6.45a4.72,4.72,0,0,1,1.34-2.88,4.34,4.34,0,0,1,5.66,0,4.73,4.73,0,0,1,1.35,2.88Z"/><path class="cls-2" d="M219.32,117.58a8.89,8.89,0,0,1,1.65.19,13.44,13.44,0,0,1,1.75.48v-7.43a18.83,18.83,0,0,0-5.47-.91,9.55,9.55,0,0,0-3.81.74,8.25,8.25,0,0,0-2.9,2.11,9.88,9.88,0,0,0-1.87,3.31,13,13,0,0,0-.67,4.29v2.69h-4.18c-.16,0-.58,0-1.2,0a7.71,7.71,0,0,0-4.24,1.34,10.52,10.52,0,0,0-3.33,3.91v-4.8H186.7v25.23h9.11v-15a5.84,5.84,0,0,1,3.22-1.92,18.2,18.2,0,0,1,4.78-.58H208v17.45h9.1V131.27h5.51V130h0V123.1h-5.52V120C217.11,118.4,217.85,117.58,219.32,117.58Z"/><path class="cls-2" d="M232.42,104.13a5.37,5.37,0,0,0-5.38,5.36v0a5.37,5.37,0,0,0,10.73,0v0A5.32,5.32,0,0,0,232.42,104.13Zm4.72,5.36a4.74,4.74,0,1,1-9.48,0v0a4.74,4.74,0,1,1,9.48,0Z"/><path class="cls-2" d="M235,108.38v0a1.71,1.71,0,0,0-.48-1.24,2.36,2.36,0,0,0-1.76-.63h-2.54v5.71h1.26v-1.84h1l1.21,1.84h1.47l-1.39-2A1.77,1.77,0,0,0,235,108.38Zm-1.28.07c0,.48-.34.82-1,.82h-1.26v-1.68h1.23c.63,0,1,.29,1,.83Z"/></svg>