<svg id="Layer_1" data-name="Layer 1" xmlns="http://www.w3.org/2000/svg" viewBox="0 0 242.77 157.76"><defs><style>.cls-1{fill:#ffbe00;}.cls-2{fill:#112a49;}.cls-3{fill:#f4f4f4;}</style></defs><title>PDF</title><rect class="cls-1" x="64.99" y="4.82" width="92.78" height="92.78" rx="27.04" ry="27.04"/><path class="cls-2" d="M140.4,38.44a28.78,28.78,0,0,0-16.6-17.38,36.79,36.79,0,0,0-14.28-2.58h-7c34.32,19.22,20.53,51.67,12.78,65.05a34.08,34.08,0,0,0,7.73-2,29.84,29.84,0,0,0,10.41-6.63,29.27,29.27,0,0,0,6.69-10.33,37.05,37.05,0,0,0,2.35-13.5A37.52,37.52,0,0,0,140.4,38.44Z"/><path class="cls-2" d="M114.5,83.55a55.34,55.34,0,0,0,5.24-19.4A13,13,0,0,1,115.79,67a14.56,14.56,0,0,1-6.27,1.3h-7.19V34.15h6.4C101.17,26,91.55,20.93,85.94,18.48H84.35V83.93h25.37c4.13.24.64,7.81.64,7.81,2.07-4,3.81-7.51,4.09-8.09h0l0-.06v0Z"/><path class="cls-3" d="M32.2,119.84a15.51,15.51,0,0,0-5.37-3.64,19.24,19.24,0,0,0-7.43-1.34H15.78c17.85,10,10.68,26.86,6.65,33.82a18,18,0,0,0,4-1,15.39,15.39,0,0,0,5.41-3.45,15.2,15.2,0,0,0,3.48-5.37,19.29,19.29,0,0,0,1.22-7,19.64,19.64,0,0,0-1.1-6.59A15.4,15.4,0,0,0,32.2,119.84Z"/><path class="cls-3" d="M24.72,138.6a6.91,6.91,0,0,1-2.06,1.47,7.72,7.72,0,0,1-3.26.67H15.66V123H19a36,36,0,0,0-11.85-8.15H6.32v34H19.51c2.14.13.33,4.06.33,4.06,1.08-2.1,2-3.9,2.13-4.2h0l0,0v0h0A28.85,28.85,0,0,0,24.72,138.6Z"/><path class="cls-3" d="M62.8,127.16a13,13,0,0,0-4.34-2.88,15.37,15.37,0,0,0-6-1.07,15.3,15.3,0,0,0-6,1.07,13,13,0,0,0-4.32,2.88,11.84,11.84,0,0,0-2.64,4.17,14.45,14.45,0,0,0,0,9.93,11.79,11.79,0,0,0,2.64,4.18,13,13,0,0,0,4.32,2.87,15.29,15.29,0,0,0,6,1.08,15.36,15.36,0,0,0,6-1.08,13,13,0,0,0,4.34-2.87,12.08,12.08,0,0,0,2.64-4.18,14.45,14.45,0,0,0,0-9.93A12.13,12.13,0,0,0,62.8,127.16Zm-7.08,13.12a4.3,4.3,0,0,1-6.42,0,7,7,0,0,1,0-8,4.3,4.3,0,0,1,6.42,0,7,7,0,0,1,0,8Z"/><path class="cls-3" d="M109,126.47a6.36,6.36,0,0,0-2.23-2.33,7.3,7.3,0,0,0-4-.93,11.79,11.79,0,0,0-5.3,1.15,9,9,0,0,0-3.66,3.21,7.05,7.05,0,0,0-.8-1.63,5.33,5.33,0,0,0-1.34-1.39,6.5,6.5,0,0,0-2-1,9.39,9.39,0,0,0-2.69-.35,13.23,13.23,0,0,0-5.56,1.07,8.49,8.49,0,0,0-3.69,3.15v-3.75h-8.2v25.23h9.11V134.76a5.9,5.9,0,0,1,1.8-2.59,3.72,3.72,0,0,1,2.32-1,2.3,2.3,0,0,1,1.8.84,4,4,0,0,1,.75,2.71v14.19h9.11V134.76a5.9,5.9,0,0,1,1.8-2.59,3.72,3.72,0,0,1,2.32-1,2.3,2.3,0,0,1,1.8.84,4,4,0,0,1,.75,2.71v14.19h9.11V132.32a19.35,19.35,0,0,0-.24-2.88A8.86,8.86,0,0,0,109,126.47Z"/><path class="cls-1" d="M120,111.89h-1.54a4.38,4.38,0,0,0-4.1,4.61h0a4.38,4.38,0,0,0,4.1,4.61H120A4.37,4.37,0,0,0,124,116.5h0A4.37,4.37,0,0,0,120,111.89Z"/><rect class="cls-3" x="114.62" y="123.68" width="9.11" height="25.23"/><path class="cls-3" d="M152.44,126.47a6.49,6.49,0,0,0-2.3-2.33,7.8,7.8,0,0,0-4.1-.93,14,14,0,0,0-5.73,1.07,8.49,8.49,0,0,0-3.77,3.15v-3.75h-8.2v25.23h9.11V134.76a6.15,6.15,0,0,1,1.92-2.59,4.06,4.06,0,0,1,2.45-1,2.67,2.67,0,0,1,1.94.84,3.71,3.71,0,0,1,.84,2.71v14.19h9.11V132.32a19.35,19.35,0,0,0-.24-2.88A8.47,8.47,0,0,0,152.44,126.47Z"/><path class="cls-3" d="M180.83,127.16a12.77,12.77,0,0,0-4.34-2.88,17.13,17.13,0,0,0-11.92,0,12.71,12.71,0,0,0-4.31,2.91,11.86,11.86,0,0,0-2.64,4.26,15.16,15.16,0,0,0-.89,5.18,13.22,13.22,0,0,0,.91,4.85,12.09,12.09,0,0,0,7,6.88,15.76,15.76,0,0,0,5.9,1,15,15,0,0,0,7.84-1.92,12.09,12.09,0,0,0,4.72-4.94h0a7.53,7.53,0,0,0,.79-2.2h-8.5a3.38,3.38,0,0,1-1.75,1.87,6.06,6.06,0,0,1-2.81.67,5.2,5.2,0,0,1-2.92-.89,3.54,3.54,0,0,1-1.49-2.9h17.7c.06-.38.12-.82.17-1.32a14.41,14.41,0,0,0,.07-1.46,14.15,14.15,0,0,0-.89-5A11.84,11.84,0,0,0,180.83,127.16Zm-14.6,6.45a4.69,4.69,0,0,1,1.34-2.87,4.31,4.31,0,0,1,5.66,0,4.65,4.65,0,0,1,1.35,2.87Z"/><path class="cls-3" d="M220,117.77a8.11,8.11,0,0,1,1.65.19,12,12,0,0,1,1.75.48V111a18.53,18.53,0,0,0-5.47-.92,9.55,9.55,0,0,0-3.81.74,8.25,8.25,0,0,0-2.9,2.11,10,10,0,0,0-1.87,3.31,13.06,13.06,0,0,0-.67,4.3v2.68H204.5c-.16,0-.58,0-1.2,0a7.79,7.79,0,0,0-4.24,1.34,10.6,10.6,0,0,0-3.33,3.91v-4.8h-8.35v25.23h9.11V134a5.84,5.84,0,0,1,3.22-1.92,18.65,18.65,0,0,1,4.78-.57h4.19v17.45h9.1V131.46h5.51v-1.32h0v-6.86h-5.52v-3.07C217.79,118.58,218.53,117.77,220,117.77Z"/><path class="cls-3" d="M233.1,104.31a5.38,5.38,0,0,0-5.38,5.36v0a5.37,5.37,0,0,0,10.73,0v0A5.33,5.33,0,0,0,233.1,104.31Zm4.72,5.36a4.74,4.74,0,1,1-9.48,0v0a4.74,4.74,0,1,1,9.48,0Z"/><path class="cls-3" d="M235.65,108.56v0a1.71,1.71,0,0,0-.48-1.24,2.4,2.4,0,0,0-1.76-.62h-2.54v5.7h1.26v-1.84h1l1.21,1.84h1.47l-1.39-2A1.79,1.79,0,0,0,235.65,108.56Zm-1.28.08c0,.47-.34.81-1,.81h-1.26v-1.67h1.23c.63,0,1,.28,1,.83Z"/></svg>